<svg width="256" height="256" viewBox="0 0 141 144" fill="none" xmlns="http://www.w3.org/2000/svg">
<path fill-rule="evenodd" clip-rule="evenodd" d="M13.3984 38.386L17.2585 42.597L29.8916 133.485C54.7106 145.778 89.1986 143.857 106.041 133.485L121.13 42.597L124.99 38.386C121.296 40.262 117.304 41.8488 113.096 43.1731C84.9777 52.0227 47.2431 49.1538 24.6989 42.597C20.2889 41.3144 16.4602 39.8907 13.3984 38.386ZM40.77 114.184L43.5774 60.1429C65.9836 64.5218 77.6373 64.5065 97.6187 62.2484L95.1623 114.184H40.77Z" fill="white"/>
<path d="M124.99 38.386C100.989 27.0725 45.4222 22.3617 13.3984 38.386C16.4602 39.8907 20.2889 41.3144 24.6989 42.597C60.4411 33.836 79.52 36.0047 113.096 43.1731C117.304 41.8488 121.296 40.262 124.99 38.386Z" fill="white"/>
<path d="M113.096 43.1731C84.9777 52.0227 47.2431 49.1538 24.6989 42.597C60.4411 33.836 79.52 36.0047 113.096 43.1731Z" fill="white"/>
<path d="M43.5774 60.1429L40.77 114.184H95.1623L97.6187 62.2484C77.6373 64.5065 65.9836 64.5218 43.5774 60.1429Z" fill="white"/>
<path d="M13.3984 38.386L17.2585 42.597L29.8916 133.485C54.7106 145.778 89.1986 143.857 106.041 133.485L121.13 42.597L124.99 38.386M13.3984 38.386C45.4222 22.3617 100.989 27.0725 124.99 38.386M13.3984 38.386L16.5567 23.6475M13.3984 38.386C16.4602 39.8907 20.2889 41.3144 24.6989 42.597M124.99 38.386L122.885 28.5603M124.99 38.386C121.296 40.262 117.304 41.8488 113.096 43.1731M113.096 43.1731C84.9777 52.0227 47.2431 49.1538 24.6989 42.597M113.096 43.1731C79.52 36.0047 60.4411 33.836 24.6989 42.597M43.5774 60.1429L40.77 114.184H95.1623L97.6187 62.2484C77.6373 64.5065 65.9836 64.5218 43.5774 60.1429Z" stroke="black" stroke-width="3"/>
<path d="M47.8252 70.2959C47.9644 71.5491 48.369 72.6361 48.4078 73.9531C48.4335 74.829 48.5462 76.7894 49.2816 77.1572C50.1396 77.5861 51.6601 78.4439 52.5504 77.6426C53.4149 76.8646 52.8571 75.5082 51.7575 75.2638C50.8202 75.0555 47.9169 75.2477 48.877 75.2477C49.6888 75.2477 50.5855 74.5072 50.9645 73.7913C51.2611 73.2312 51.6118 73.5942 51.6118 72.7718C51.6118 71.9162 51.4031 71.9857 51.0293 71.3316C50.5646 70.5184 48.9386 70.5872 48.1165 70.5872" stroke="black" stroke-width="3" stroke-linecap="round"/>
<path d="M55.9805 72.3359C55.9805 73.7777 55.5309 76.0106 56.207 77.2877C56.9628 78.7152 59.096 78.2764 59.7024 76.9964C60.0169 76.3325 60.0584 75.3453 60.0584 74.6014C60.0584 74.2853 60.0584 72.3176 60.0584 73.5658C60.0584 75.3566 59.7671 76.973 59.7671 78.7441" stroke="black" stroke-width="3" stroke-linecap="round"/>
<path d="M67.0507 74.0827C65.8385 73.9312 64.8631 72.0462 63.4097 73.2089C62.519 73.9215 62.6815 74.9442 62.6815 75.976C62.6815 77.2668 62.5996 79.2241 64.4292 79.3257C65.4807 79.3842 66.3301 79.3106 66.7595 78.4519" stroke="black" stroke-width="3" stroke-linecap="round"/>
<path d="M69.9619 72.3359C70.0261 73.9404 70.2532 75.5176 70.2532 77.1582C70.2532 77.6286 70.2532 80.5223 70.2532 78.7441C70.2532 76.5522 71.2751 75.3039 73.166 74.1483C74.5871 73.2799 74.8348 72.5443 73.2307 74.1483C72.6828 74.6963 72.006 75.134 71.483 75.6047C69.6771 77.2301 74.4414 77.8703 75.4962 77.8703" stroke="black" stroke-width="3" stroke-linecap="round"/>
<path d="M83.0707 72.3356C82.24 72.3356 81.4093 72.3356 80.5786 72.3356C79.2406 72.3356 78.4102 71.9308 78.4102 73.4845C78.4102 74.1314 78.0733 75.7981 78.928 75.8309C79.8767 75.8674 81.7761 75.8309 81.7761 75.8309C81.7761 75.8309 80.2118 75.8309 79.4297 75.8309C78.0695 75.8309 78.7015 76.3154 78.7015 77.433C78.7015 78.7877 78.8655 78.7437 80.2226 78.7437C81.269 78.7437 82.3155 78.7437 83.3619 78.7437" stroke="black" stroke-width="3" stroke-linecap="round"/>
<path d="M57.1463 89.2285C56.5678 90.5301 56.5637 92.5923 56.5637 94.0346C56.5637 94.6822 56.2914 95.6115 57.1463 95.6367C58.0182 95.6623 58.8951 95.6367 59.7678 95.6367" stroke="black" stroke-width="3" stroke-linecap="round"/>
<path d="M65.5933 89.8115C64.426 90.1033 65.0107 95.7075 65.0107 96.8022" stroke="black" stroke-width="3" stroke-linecap="round"/>
<path d="M74.3319 89.8118C73.2831 89.8118 72.3243 89.5205 71.2735 89.5205C70.2967 89.5205 70.5694 90.437 70.1893 90.9122C69.0574 92.327 71.8353 93.3071 72.7299 93.3071C73.91 93.3071 74.7161 95.6329 73.3124 95.9448C72.5334 96.1179 69.5029 96.7566 69.0889 95.9287" stroke="black" stroke-width="3" stroke-linecap="round"/>
<path d="M77.8271 88.9375C79.4649 88.9375 81.05 89.2288 82.6333 89.2288C84.8059 89.2288 82.6428 89.2469 81.7432 89.5039C81.1535 89.6724 80.7399 89.2781 80.7399 90.1026C80.7399 90.6852 80.7399 91.2677 80.7399 91.8503C80.7399 93.4038 80.7399 94.9573 80.7399 96.5108" stroke="black" stroke-width="3" stroke-linecap="round"/>
<path d="M92.3909 71.1699C90.7403 71.1699 89.0897 71.1699 87.4392 71.1699C87.0972 71.1699 86.1153 70.9785 86.2902 71.5907C86.4401 72.1154 87.5811 71.5106 87.8761 71.445C89.013 71.1924 88.6043 77.8595 88.6043 79.0345" stroke="black" stroke-width="3" stroke-linecap="round"/>
<path d="M15.5088 26.0186C11.8381 26.0186 10 27.3104 10 31.1338C10 33.0803 11.2423 34.068 11.5958 35.6589C11.9595 37.2956 11.9674 38.8487 11.9674 40.5774C11.9674 44.2989 11.4481 47.963 13.8474 50.8954C15.2009 52.5496 16.3158 57.8906 18.6566 57.8906" stroke="black" stroke-width="3" stroke-linecap="round"/>
<path d="M123.324 30.3467C124.852 30.3467 127.206 29.8567 128.264 30.915C128.937 31.5879 129.546 30.678 129.619 31.9206C129.657 32.5686 130.406 32.7085 130.406 33.4945C130.406 35.7734 131.887 40.1033 130.319 42.0637C129.228 43.4272 127.858 44.6552 126.646 45.8673C126.07 46.4434 125.486 46.3637 124.985 47.2664C124.538 48.0709 124.227 48.8294 123.804 49.6273C123.493 50.2147 123.203 50.579 122.755 51.0263C122.233 51.5486 122.937 52.8151 122.318 53.1686C121.441 53.6699 120.715 56.1703 119.782 57.1035" stroke="black" stroke-width="3" stroke-linecap="round"/>
<path d="M69.2005 23.6872C48.4751 30.4385 33.6514 23.1274 33.6514 8.01197C49.4376 2.7573 55.9419 6.63011 65.0018 20.888C62.6964 2.86485 76.7582 -5.70374 97.192 7.17232C89.6461 16.8709 83.5496 20.5508 69.2005 23.6872Z" fill="white"/>
<path d="M61.6428 43.841C63.6406 39.6446 64.6549 40.4259 66.4014 44.4009M66.4014 44.4009C70.0147 41.6054 71.534 41.8855 73.6792 44.4009M66.4014 44.4009C70.4453 36.9122 72.1589 32.6045 69.2005 23.6872M69.2005 23.6872C48.4751 30.4385 33.6514 23.1274 33.6514 8.01197C49.4376 2.7573 55.9419 6.63011 65.0018 20.888C62.6964 2.86485 76.7582 -5.70374 97.192 7.17232C89.6461 16.8709 83.5496 20.5508 69.2005 23.6872ZM67.521 18.3689C73.3789 11.7919 77.3454 10.1529 85.4356 9.97149M59.9633 20.0484C52.9705 13.2064 48.157 10.7756 37.0103 10.5313" stroke="black" stroke-width="2"/>
</svg>
