<svg width="341" height="201" viewBox="0 0 341 201" fill="none" xmlns="http://www.w3.org/2000/svg">
<path d="M13.5783 69.52L25.6743 6.64C33.2263 6 39.4343 5.68 44.2983 5.68C49.1623 5.68 53.1623 5.904 56.2983 6.352C59.4343 6.736 62.0583 7.472 64.1703 8.56C68.3943 10.608 70.5063 14.448 70.5063 20.08C70.5063 23.344 69.0983 26.352 66.2823 29.104C63.6583 31.6 60.9063 33.136 58.0263 33.712C61.0983 34.224 63.7223 35.632 65.8983 37.936C68.2023 40.368 69.3542 43.472 69.3542 47.248C69.3542 54.544 66.6343 60.336 61.1943 64.624C55.7543 68.848 47.6903 70.96 37.0023 70.96C29.6423 70.96 21.8343 70.48 13.5783 69.52ZM34.8903 63.952C35.4663 64.016 35.8183 64.048 35.9463 64.048H36.8103C42.0583 64.048 45.8023 62.32 48.0423 58.864C49.7063 56.176 50.5383 52.368 50.5383 47.44C50.5383 44.816 49.6743 42.8 47.9463 41.392C46.2823 39.984 43.5303 39.216 39.6903 39.088L34.8903 63.952ZM54.2823 20.176C54.2823 14.864 51.7223 12.208 46.6023 12.208H45.7383C45.4823 12.208 45.1623 12.24 44.7783 12.304L40.9383 32.56H41.8983C50.1543 32.368 54.2823 28.24 54.2823 20.176ZM106.479 65.968C103.407 69.936 98.0633 71.92 90.4473 71.92C86.4793 71.92 83.0553 70.736 80.1753 68.368C77.2953 65.936 75.8553 62.992 75.8553 59.536C75.8553 57.616 75.9513 56.176 76.1433 55.216L82.5753 21.04L102.063 19.12L95.0553 56.176C94.7993 57.584 94.6713 58.704 94.6713 59.536C94.6713 63.248 95.7913 65.104 98.0312 65.104C100.527 65.104 102.671 63.408 104.463 60.016C105.039 58.928 105.455 57.68 105.711 56.272L112.527 21.04L131.439 19.12L124.335 56.56C124.143 57.52 124.047 58.512 124.047 59.536C124.047 60.56 124.335 61.648 124.911 62.8C125.487 63.888 126.703 64.56 128.559 64.816C128.175 66.352 127.311 67.632 125.967 68.656C123.151 70.832 120.207 71.92 117.135 71.92C114.127 71.92 111.727 71.376 109.935 70.288C108.143 69.2 106.991 67.76 106.479 65.968ZM183.362 30.064C183.362 32.752 182.242 34.928 180.002 36.592C177.762 38.256 174.818 39.088 171.17 39.088C169.634 39.088 168.418 38.864 167.522 38.416C168.226 36.752 168.674 34.896 168.866 32.848C169.122 30.736 169.25 29.392 169.25 28.816C169.25 26.128 168.322 24.784 166.466 24.784C165.186 24.784 163.81 25.584 162.338 27.184C160.93 28.784 159.618 30.832 158.402 33.328C155.714 39.088 154.37 44.88 154.37 50.704C154.37 53.904 154.978 56.24 156.194 57.712C157.41 59.12 159.362 59.824 162.05 59.824C165.762 59.824 169.09 58.288 172.034 55.216C172.866 54.256 173.506 53.232 173.954 52.144C176.386 53.424 177.602 55.824 177.602 59.344C177.602 62.928 175.618 65.904 171.65 68.272C167.554 70.704 162.242 71.92 155.714 71.92C142.722 71.92 136.226 65.04 136.226 51.28C136.226 41.232 139.074 33.328 144.77 27.568C150.274 21.936 158.082 19.12 168.194 19.12C178.306 19.12 183.362 22.768 183.362 30.064ZM210.681 24.496C214.137 20.912 219.513 19.12 226.809 19.12C230.841 19.12 233.945 20.208 236.121 22.384C238.361 24.496 239.481 27.536 239.481 31.504C239.481 35.408 238.361 38.768 236.121 41.584C233.945 44.336 230.809 46.288 226.713 47.44C227.033 48.72 227.417 50.032 227.865 51.376L229.209 55.216C230.425 58.48 231.513 60.688 232.473 61.84C233.433 62.992 234.553 63.76 235.833 64.144C235.129 66.768 233.497 68.784 230.937 70.192C228.889 71.344 226.457 71.92 223.641 71.92C215.385 71.92 210.713 65.552 209.625 52.816C209.433 51.024 209.337 49.232 209.337 47.44C212.537 46.544 215.257 44.592 217.497 41.584C219.737 38.576 220.857 35.312 220.857 31.792C220.857 28.272 219.609 26.512 217.113 26.512C215.321 26.512 213.721 27.504 212.313 29.488C210.905 31.472 209.881 34.16 209.241 37.552L202.905 70L183.513 71.92L196.953 2.8L216.249 0.879997L214.041 12.304C213.081 17.68 211.961 21.744 210.681 24.496ZM282.731 53.776C284.331 54.864 285.131 56.624 285.131 59.056C285.131 61.424 284.523 63.376 283.307 64.912C282.091 66.448 280.491 67.728 278.507 68.752C274.411 70.864 270.155 71.92 265.739 71.92C261.323 71.92 257.803 71.44 255.179 70.48C252.619 69.52 250.475 68.144 248.747 66.352C245.355 62.96 243.659 58.16 243.659 51.952C243.659 42.288 246.283 34.512 251.531 28.624C257.163 22.288 264.875 19.12 274.667 19.12C280.747 19.12 285.291 20.4 288.299 22.96C290.539 24.88 291.659 27.408 291.659 30.544C291.659 41.808 281.931 47.44 262.475 47.44C262.219 49.104 262.091 50.64 262.091 52.048C262.091 54.992 262.731 57.04 264.011 58.192C265.355 59.28 267.243 59.824 269.675 59.824C272.107 59.824 274.603 59.28 277.163 58.192C279.787 57.04 281.643 55.568 282.731 53.776ZM263.147 43.312C267.691 43.312 271.275 41.904 273.899 39.088C276.523 36.4 277.835 32.912 277.835 28.624C277.835 27.152 277.547 26.032 276.971 25.264C276.459 24.432 275.659 24.016 274.571 24.016C273.483 24.016 272.459 24.24 271.499 24.688C270.603 25.072 269.675 25.968 268.715 27.376C266.347 30.576 264.491 35.888 263.147 43.312ZM296.48 60.4C296.48 58.672 296.929 55.632 297.825 51.28L302.913 25.36H297.249L297.633 22.48C305.313 20.176 312.865 16.208 320.289 10.576H324.897L322.593 21.04H330.081L329.217 25.36H321.825L316.929 51.28C316.097 55.248 315.681 57.904 315.681 59.248C315.681 62.32 317.025 64.176 319.713 64.816C319.073 66.992 317.601 68.72 315.297 70C312.993 71.28 310.209 71.92 306.945 71.92C303.681 71.92 301.121 70.896 299.265 68.848C297.409 66.8 296.48 63.984 296.48 60.4ZM208.791 167.216C210.007 168.752 210.615 171.024 210.615 174.032C210.615 176.976 209.463 179.376 207.159 181.232C204.919 183.024 201.815 183.92 197.847 183.92C195.543 183.92 192.599 183.664 189.015 183.152C181.975 182.064 177.431 181.52 175.383 181.52C173.399 181.52 171.991 181.584 171.159 181.712C170.327 181.776 169.239 181.872 167.895 182L179.511 118.64H200.535L190.935 171.44C191.767 171.568 192.567 171.632 193.335 171.632H195.735C201.111 171.632 205.463 170.16 208.791 167.216ZM240.078 176.72C238.094 181.52 233.934 183.92 227.598 183.92C224.334 183.92 221.678 182.8 219.63 180.56C217.902 178.576 217.038 176.592 217.038 174.608C217.038 169.424 218.222 161.776 220.59 151.664L224.142 133.04L243.63 131.12L237.774 161.456C236.686 166.192 236.142 169.392 236.142 171.056C236.142 174.704 237.454 176.592 240.078 176.72ZM225.87 119.696C225.87 117.2 226.894 115.28 228.942 113.936C231.054 112.592 233.614 111.92 236.622 111.92C239.63 111.92 242.03 112.592 243.822 113.936C245.678 115.28 246.606 117.2 246.606 119.696C246.606 122.192 245.582 124.08 243.534 125.36C241.55 126.64 239.054 127.28 236.046 127.28C233.038 127.28 230.574 126.64 228.654 125.36C226.798 124.08 225.87 122.192 225.87 119.696ZM276.961 148.304C277.857 145.936 278.305 143.728 278.305 141.68C278.305 137.904 276.769 136.016 273.697 136.016C272.097 136.016 270.625 136.752 269.281 138.224C268.001 139.632 267.361 141.232 267.361 143.024C267.361 144.304 267.873 145.456 268.897 146.48C270.369 147.888 272.993 149.744 276.769 152.048C280.545 154.352 283.137 156.464 284.545 158.384C286.017 160.24 286.753 162.48 286.753 165.104C286.753 167.664 286.113 170.128 284.833 172.496C283.617 174.864 281.889 176.88 279.649 178.544C274.849 182.128 268.609 183.92 260.929 183.92C256.769 183.92 253.089 182.832 249.889 180.656C246.689 178.544 245.089 176.24 245.089 173.744C245.089 171.248 245.985 169.264 247.777 167.792C249.633 166.32 251.905 165.584 254.593 165.584C257.281 165.584 259.457 166.096 261.121 167.12C260.289 169.232 259.873 170.992 259.873 172.4C259.873 176.624 261.665 178.736 265.249 178.736C266.785 178.736 268.065 178.256 269.089 177.296C270.113 176.336 270.625 175.024 270.625 173.36C270.625 170.096 267.873 166.736 262.369 163.28C257.889 160.336 255.137 158.288 254.113 157.136C252.385 155.088 251.521 152.784 251.521 150.224C251.521 147.664 252.129 145.168 253.345 142.736C254.561 140.304 256.289 138.224 258.529 136.496C263.201 132.912 269.601 131.12 277.729 131.12C281.889 131.12 285.185 131.952 287.617 133.616C290.113 135.28 291.361 137.52 291.361 140.336C291.361 143.152 290.497 145.36 288.769 146.96C287.105 148.56 284.737 149.36 281.665 149.36C279.553 149.36 277.985 149.008 276.961 148.304ZM296.48 172.4C296.48 170.672 296.929 167.632 297.825 163.28L302.913 137.36H297.249L297.633 134.48C305.313 132.176 312.865 128.208 320.289 122.576H324.897L322.593 133.04H330.081L329.217 137.36H321.825L316.929 163.28C316.097 167.248 315.681 169.904 315.681 171.248C315.681 174.32 317.025 176.176 319.713 176.816C319.073 178.992 317.601 180.72 315.297 182C312.993 183.28 310.209 183.92 306.945 183.92C303.681 183.92 301.121 182.896 299.265 180.848C297.409 178.8 296.48 175.984 296.48 172.4Z" fill="black"/>
<line x1="142.525" y1="195.525" x2="337.515" y2="197.502" stroke="black" stroke-width="5" stroke-linecap="round"/>
<line x1="2.52521" y1="87.5255" x2="337.508" y2="90.9206" stroke="black" stroke-width="5" stroke-linecap="round"/>
</svg>