<svg width="300" height="91" viewBox="0 0 300 91" fill="none" xmlns="http://www.w3.org/2000/svg">
<line x1="2.52521" y1="84.5255" x2="296.525" y2="87.5052" stroke="black" stroke-width="5" stroke-linecap="round"/>
<path d="M57.76 49.216C58.976 50.752 59.584 53.024 59.584 56.032C59.584 58.976 58.432 61.376 56.128 63.232C53.888 65.024 50.784 65.92 46.816 65.92C44.512 65.92 41.568 65.664 37.984 65.152C30.944 64.064 26.4 63.52 24.352 63.52C22.368 63.52 20.96 63.584 20.128 63.712C19.296 63.776 18.208 63.872 16.864 64L28.48 0.639997H49.504L39.904 53.44C40.736 53.568 41.536 53.632 42.304 53.632H44.704C50.08 53.632 54.432 52.16 57.76 49.216ZM104.887 47.776C106.487 48.864 107.287 50.624 107.287 53.056C107.287 55.424 106.679 57.376 105.463 58.912C104.247 60.448 102.647 61.728 100.663 62.752C96.567 64.864 92.311 65.92 87.895 65.92C83.479 65.92 79.959 65.44 77.335 64.48C74.775 63.52 72.631 62.144 70.903 60.352C67.511 56.96 65.815 52.16 65.815 45.952C65.815 36.288 68.439 28.512 73.687 22.624C79.319 16.288 87.031 13.12 96.823 13.12C102.903 13.12 107.447 14.4 110.455 16.96C112.695 18.88 113.815 21.408 113.815 24.544C113.815 35.808 104.087 41.44 84.631 41.44C84.375 43.104 84.247 44.64 84.247 46.048C84.247 48.992 84.887 51.04 86.167 52.192C87.511 53.28 89.399 53.824 91.831 53.824C94.263 53.824 96.759 53.28 99.319 52.192C101.943 51.04 103.799 49.568 104.887 47.776ZM85.303 37.312C89.847 37.312 93.431 35.904 96.055 33.088C98.679 30.4 99.991 26.912 99.991 22.624C99.991 21.152 99.703 20.032 99.127 19.264C98.615 18.432 97.815 18.016 96.727 18.016C95.639 18.016 94.615 18.24 93.655 18.688C92.759 19.072 91.831 19.968 90.871 21.376C88.503 24.576 86.647 29.888 85.303 37.312ZM118.637 54.4C118.637 52.672 119.085 49.632 119.981 45.28L125.069 19.36H119.405L119.789 16.48C127.469 14.176 135.021 10.208 142.445 4.576H147.053L144.749 15.04H152.237L151.373 19.36H143.981L139.085 45.28C138.253 49.248 137.837 51.904 137.837 53.248C137.837 56.32 139.181 58.176 141.869 58.816C141.229 60.992 139.757 62.72 137.453 64C135.149 65.28 132.365 65.92 129.101 65.92C125.837 65.92 123.277 64.896 121.421 62.848C119.565 60.8 118.637 57.984 118.637 54.4ZM153.324 54.4C153.324 52.672 153.772 49.632 154.668 45.28L159.756 19.36H154.092L154.476 16.48C162.156 14.176 169.708 10.208 177.132 4.576H181.74L179.436 15.04H186.924L186.06 19.36H178.668L173.772 45.28C172.94 49.248 172.524 51.904 172.524 53.248C172.524 56.32 173.868 58.176 176.556 58.816C175.916 60.992 174.444 62.72 172.14 64C169.836 65.28 167.052 65.92 163.788 65.92C160.524 65.92 157.964 64.896 156.108 62.848C154.252 60.8 153.324 57.984 153.324 54.4ZM224.981 47.776C226.581 48.864 227.381 50.624 227.381 53.056C227.381 55.424 226.773 57.376 225.557 58.912C224.341 60.448 222.741 61.728 220.757 62.752C216.661 64.864 212.405 65.92 207.989 65.92C203.573 65.92 200.053 65.44 197.429 64.48C194.869 63.52 192.725 62.144 190.997 60.352C187.605 56.96 185.909 52.16 185.909 45.952C185.909 36.288 188.533 28.512 193.781 22.624C199.413 16.288 207.125 13.12 216.917 13.12C222.997 13.12 227.541 14.4 230.549 16.96C232.789 18.88 233.909 21.408 233.909 24.544C233.909 35.808 224.181 41.44 204.725 41.44C204.469 43.104 204.341 44.64 204.341 46.048C204.341 48.992 204.981 51.04 206.261 52.192C207.605 53.28 209.493 53.824 211.925 53.824C214.357 53.824 216.853 53.28 219.413 52.192C222.037 51.04 223.893 49.568 224.981 47.776ZM205.397 37.312C209.941 37.312 213.525 35.904 216.149 33.088C218.773 30.4 220.085 26.912 220.085 22.624C220.085 21.152 219.797 20.032 219.221 19.264C218.709 18.432 217.909 18.016 216.821 18.016C215.733 18.016 214.709 18.24 213.749 18.688C212.853 19.072 211.925 19.968 210.965 21.376C208.597 24.576 206.741 29.888 205.397 37.312ZM267.243 37.024C269.547 32.928 270.699 28.8 270.699 24.64C270.699 21.888 269.707 20.512 267.723 20.512C266.187 20.512 264.619 21.824 263.019 24.448C261.355 27.072 260.267 30.08 259.755 33.472L254.763 64L234.89 65.92L244.683 15.04L260.523 13.12L258.795 22.816C261.931 16.352 267.019 13.12 274.059 13.12C277.771 13.12 280.619 14.08 282.603 16C284.651 17.92 285.675 20.864 285.675 24.832C285.675 28.736 284.363 31.936 281.739 34.432C279.179 36.928 275.691 38.176 271.275 38.176C269.355 38.176 268.011 37.792 267.243 37.024Z" fill="black"/>
</svg>
